<svg width="42" height="48" viewBox="0 0 42 48" fill="none" xmlns="http://www.w3.org/2000/svg">
<path d="M18.4403 0.103802C12.377 0.713886 6.79244 4.10219 3.32905 9.2832C1.6959 11.7329 0.466352 15.1212 0.0909168 18.1998C-0.0498716 19.373 -0.0217139 21.5881 0.137846 22.5361C1.15152 28.3084 6.86753 36.4554 16.0469 45.203C17.9335 46.9957 18.3559 47.3524 18.9472 47.6527C19.6136 47.9812 19.698 48 20.5522 48C21.4063 48 21.4907 47.9812 22.1571 47.6527C22.7485 47.3524 23.1708 46.9957 25.0574 45.203C31.0174 39.5245 35.8136 33.7334 38.4604 28.9936C39.7651 26.6471 40.5441 24.6667 40.9289 22.6956C41.1354 21.635 41.173 19.5232 41.0134 18.1998C40.6661 15.3183 39.5961 12.2304 38.1319 9.84636C36.9962 8.00672 35.1284 5.8949 33.4484 4.53394C29.2623 1.17379 23.8184 -0.440578 18.4403 0.103802ZM23.5556 1.6337C28.5208 2.45966 32.9509 5.14402 35.9169 9.13303C37.8973 11.7892 39.0799 14.6707 39.568 18.0121C39.7932 19.6171 39.7182 21.9635 39.3803 23.2212C37.9161 28.7777 32.6787 35.9391 23.9405 44.3207C22.7766 45.4283 21.838 46.2542 21.594 46.3762C21.0308 46.6484 20.402 46.6954 19.8201 46.4983C19.2569 46.3199 17.9992 45.1936 15.2116 42.406C9.2797 36.4835 5.39395 31.4902 3.18826 26.9756C1.81792 24.188 1.40494 22.6299 1.40494 20.3116C1.40494 11.7517 7.45884 4.10219 15.9155 1.97159C16.6289 1.79326 18.1306 1.53046 18.9096 1.45537C19.698 1.38028 22.7015 1.49291 23.5556 1.6337Z" fill="#FFB60A"/>
<path d="M18.9565 5.25629C15.4556 5.65988 12.4427 7.05838 9.90852 9.47055C7.62775 11.6481 6.11662 14.3606 5.42207 17.5706C5.24373 18.3965 5.21558 18.8095 5.21558 20.5928C5.21558 22.3761 5.24373 22.7891 5.42207 23.6057C5.88197 25.7081 6.79241 27.82 7.94687 29.4625C8.8573 30.7484 10.6031 32.4566 11.8608 33.3013C15.3242 35.6103 19.0504 36.4362 23.1332 35.7886C23.6495 35.7041 24.2032 35.5821 24.3722 35.5164C24.8602 35.3099 24.9259 34.6529 24.4848 34.3244C24.2502 34.1461 24.2314 34.1461 23.1708 34.3525C21.7723 34.6341 19.454 34.6529 18.1118 34.3995C15.2303 33.8457 12.7149 32.5223 10.65 30.448C9.3266 29.134 7.83424 26.9471 8.1252 26.7594C8.18152 26.7218 9.28905 25.8114 10.5749 24.7414C12.1048 23.4743 12.9495 22.714 12.9871 22.5639C13.1185 22.057 12.5366 21.5314 12.0767 21.7473C11.964 21.7942 10.8753 22.6671 9.66449 23.6714L7.4588 25.5016L7.3274 25.2107C7.12091 24.7226 6.77363 23.249 6.65162 22.3574C6.48267 21.0903 6.5953 18.7626 6.87688 17.5424C8.06889 12.521 11.6825 8.64459 16.5443 7.1804C17.9804 6.74865 18.8908 6.61724 20.5521 6.61724C22.373 6.61724 23.3679 6.7768 24.9729 7.3118C26.8688 7.94065 28.5583 8.92617 29.9568 10.212C30.8015 11.0005 31.1206 11.1131 31.4773 10.7564C31.9184 10.3153 31.8246 10.0525 30.9423 9.21713C27.8543 6.29812 23.2271 4.76822 18.9565 5.25629Z" fill="#FFB60A"/>
<path d="M23.931 11.6953C23.3209 11.9206 22.5044 12.7559 22.2885 13.4035C21.913 14.5392 22.2979 15.8157 23.2271 16.529C24.6537 17.6178 26.6341 17.1485 27.4789 15.5248C27.8355 14.8302 27.8355 13.8541 27.4695 13.1126C27.1504 12.465 26.5215 11.883 25.9302 11.6859C25.3858 11.4982 24.4848 11.5076 23.931 11.6953ZM25.6205 13.0844C26.4746 13.5256 26.5966 14.7176 25.8551 15.3652C25.245 15.9096 24.2783 15.7969 23.7996 15.1305C23.5274 14.7551 23.4993 14.0042 23.7339 13.6194C24.1281 13 24.9822 12.7559 25.6205 13.0844Z" fill="#FFB60A"/>
<path d="M32.4621 12.2607C32.2181 12.5704 32.2181 12.73 32.4528 13.1429C32.9408 13.9971 33.5791 15.3205 33.8137 15.9587C34.3393 17.4323 34.527 18.4929 34.5833 20.3888C34.6115 21.365 34.6115 22.1534 34.574 22.1534C34.5364 22.1534 33.6541 21.4682 32.6123 20.6329C31.5705 19.7881 30.5662 19.0279 30.3879 18.9434C29.9749 18.7275 29.4117 18.7369 28.933 18.9528C28.7266 19.056 27.7598 19.7881 26.7931 20.6047C25.5729 21.609 24.991 22.0408 24.9159 21.9844C24.8502 21.9375 23.5268 20.8863 21.9781 19.638C20.42 18.399 19.0497 17.3572 18.9371 17.3197C18.5053 17.1789 17.8202 17.2446 17.4729 17.4511C16.7971 17.8547 14.0752 20.1824 14.0189 20.417C13.8875 20.9238 14.4694 21.4494 14.9293 21.243C15.0419 21.1866 15.7928 20.5953 16.5906 19.9289C17.3884 19.2625 18.1111 18.69 18.1956 18.6618C18.2801 18.6243 18.449 18.6712 18.5804 18.7557C19.1248 19.1217 31.7019 29.221 31.7019 29.2961C31.7019 29.3336 31.2514 29.831 30.6976 30.3942C29.5807 31.5299 28.689 32.2245 27.4782 32.9096C27.0371 33.1537 26.6053 33.4165 26.5209 33.4915C26.2862 33.6887 26.305 34.2143 26.5396 34.4489C26.8024 34.7117 27.1122 34.6836 27.788 34.3457C31.1481 32.6562 34.0202 29.2679 35.2591 25.5511C35.8504 23.7772 35.9631 22.9793 35.9631 20.6986C35.9631 18.4272 35.8504 17.6294 35.2591 15.8461C34.9119 14.7761 33.9733 12.8426 33.5791 12.3639C33.2036 11.9228 32.7625 11.8758 32.4621 12.2607ZM32.0398 21.9657C33.8982 23.4486 34.2736 23.7865 34.2548 23.9649C34.1422 24.7345 33.0722 27.3062 32.6217 27.9069C32.5091 28.0571 32.2181 27.8412 29.3273 25.5229C27.5815 24.1244 26.1736 22.9606 26.2018 22.9324C26.6147 22.5101 29.5337 20.1824 29.6464 20.1824C29.7308 20.1824 30.8008 20.9895 32.0398 21.9657Z" fill="#FFB60A"/>
</svg>
