<svg width="52" height="28" viewBox="0 0 52 28" fill="none" xmlns="http://www.w3.org/2000/svg">
<rect width="52" height="28" rx="8" fill="#FFE7DB"/>
<path d="M15.1736 16.784C15.1736 17.3387 15.0296 17.8613 14.7416 18.352C14.4642 18.832 14.0482 19.232 13.4936 19.552C12.9496 19.8613 12.3042 20.0427 11.5576 20.096V21.392H10.5336V20.08C9.4669 19.984 8.60823 19.664 7.95756 19.12C7.3069 18.5653 6.9709 17.8187 6.94956 16.88H9.34956C9.41356 17.648 9.80823 18.112 10.5336 18.272V15.216C9.76556 15.024 9.1469 14.832 8.67756 14.64C8.20823 14.448 7.8029 14.1387 7.46156 13.712C7.12023 13.2853 6.94956 12.704 6.94956 11.968C6.94956 11.04 7.28023 10.2827 7.94156 9.696C8.61356 9.10933 9.47756 8.77333 10.5336 8.688V7.392H11.5576V8.688C12.5816 8.77333 13.3976 9.08267 14.0056 9.616C14.6242 10.1493 14.9709 10.8853 15.0456 11.824H12.6296C12.5976 11.5147 12.4856 11.248 12.2936 11.024C12.1122 10.7893 11.8669 10.624 11.5576 10.528V13.552C12.3576 13.7547 12.9869 13.952 13.4456 14.144C13.9149 14.3253 14.3202 14.6293 14.6616 15.056C15.0029 15.472 15.1736 16.048 15.1736 16.784ZM9.28556 11.856C9.28556 12.208 9.39223 12.496 9.60556 12.72C9.8189 12.9333 10.1282 13.1093 10.5336 13.248V10.48C10.1496 10.5333 9.84556 10.6773 9.62156 10.912C9.39756 11.1467 9.28556 11.4613 9.28556 11.856ZM11.5576 18.304C11.9629 18.2293 12.2776 18.064 12.5016 17.808C12.7362 17.552 12.8536 17.2427 12.8536 16.88C12.8536 16.528 12.7416 16.2453 12.5176 16.032C12.2936 15.8187 11.9736 15.6427 11.5576 15.504V18.304ZM25.2583 10.272H20.0743V13.008C20.2983 12.7307 20.6183 12.5067 21.0343 12.336C21.4503 12.1547 21.893 12.064 22.3623 12.064C23.2156 12.064 23.9143 12.2507 24.4583 12.624C25.0023 12.9973 25.397 13.4773 25.6423 14.064C25.8876 14.64 26.0103 15.2587 26.0103 15.92C26.0103 17.1467 25.6583 18.1333 24.9543 18.88C24.261 19.6267 23.269 20 21.9783 20C20.7623 20 19.7916 19.696 19.0663 19.088C18.341 18.48 17.9303 17.6853 17.8343 16.704H20.0103C20.1063 17.1307 20.3196 17.472 20.6503 17.728C20.9916 17.984 21.4236 18.112 21.9463 18.112C22.5756 18.112 23.0503 17.9147 23.3703 17.52C23.6903 17.1253 23.8503 16.6027 23.8503 15.952C23.8503 15.2907 23.685 14.7893 23.3543 14.448C23.0343 14.096 22.5596 13.92 21.9303 13.92C21.4823 13.92 21.109 14.032 20.8103 14.256C20.5116 14.48 20.2983 14.7787 20.1703 15.152H18.0263V8.304H25.2583V10.272ZM30.3072 16.72C30.3925 17.1893 30.5845 17.552 30.8832 17.808C31.1925 18.0533 31.6032 18.176 32.1152 18.176C32.7765 18.176 33.2565 17.904 33.5552 17.36C33.8539 16.8053 34.0032 15.8773 34.0032 14.576C33.7579 14.9173 33.4112 15.184 32.9632 15.376C32.5259 15.568 32.0512 15.664 31.5392 15.664C30.8565 15.664 30.2379 15.5253 29.6832 15.248C29.1392 14.96 28.7072 14.5387 28.3872 13.984C28.0672 13.4187 27.9072 12.736 27.9072 11.936C27.9072 10.752 28.2592 9.81333 28.9632 9.12C29.6672 8.416 30.6272 8.064 31.8432 8.064C33.3579 8.064 34.4245 8.54933 35.0432 9.52C35.6725 10.4907 35.9872 11.952 35.9872 13.904C35.9872 15.2907 35.8645 16.4267 35.6192 17.312C35.3845 18.1973 34.9739 18.8693 34.3872 19.328C33.8112 19.7867 33.0219 20.016 32.0192 20.016C31.2299 20.016 30.5579 19.8667 30.0032 19.568C29.4485 19.2587 29.0219 18.8587 28.7232 18.368C28.4352 17.8667 28.2699 17.3173 28.2272 16.72H30.3072ZM32.0032 13.84C32.5579 13.84 32.9952 13.6693 33.3152 13.328C33.6352 12.9867 33.7952 12.528 33.7952 11.952C33.7952 11.3227 33.6245 10.8373 33.2832 10.496C32.9525 10.144 32.4992 9.968 31.9232 9.968C31.3472 9.968 30.8885 10.1493 30.5472 10.512C30.2165 10.864 30.0512 11.3333 30.0512 11.92C30.0512 12.4853 30.2112 12.9493 30.5312 13.312C30.8619 13.664 31.3525 13.84 32.0032 13.84ZM40.3228 16.72C40.4081 17.1893 40.6001 17.552 40.8988 17.808C41.2081 18.0533 41.6188 18.176 42.1308 18.176C42.7921 18.176 43.2721 17.904 43.5708 17.36C43.8695 16.8053 44.0188 15.8773 44.0188 14.576C43.7735 14.9173 43.4268 15.184 42.9788 15.376C42.5415 15.568 42.0668 15.664 41.5548 15.664C40.8721 15.664 40.2535 15.5253 39.6988 15.248C39.1548 14.96 38.7228 14.5387 38.4028 13.984C38.0828 13.4187 37.9228 12.736 37.9228 11.936C37.9228 10.752 38.2748 9.81333 38.9788 9.12C39.6828 8.416 40.6428 8.064 41.8588 8.064C43.3735 8.064 44.4401 8.54933 45.0588 9.52C45.6881 10.4907 46.0028 11.952 46.0028 13.904C46.0028 15.2907 45.8801 16.4267 45.6348 17.312C45.4001 18.1973 44.9895 18.8693 44.4028 19.328C43.8268 19.7867 43.0375 20.016 42.0348 20.016C41.2455 20.016 40.5735 19.8667 40.0188 19.568C39.4641 19.2587 39.0375 18.8587 38.7388 18.368C38.4508 17.8667 38.2855 17.3173 38.2428 16.72H40.3228ZM42.0188 13.84C42.5735 13.84 43.0108 13.6693 43.3308 13.328C43.6508 12.9867 43.8108 12.528 43.8108 11.952C43.8108 11.3227 43.6401 10.8373 43.2988 10.496C42.9681 10.144 42.5148 9.968 41.9388 9.968C41.3628 9.968 40.9041 10.1493 40.5628 10.512C40.2321 10.864 40.0668 11.3333 40.0668 11.92C40.0668 12.4853 40.2268 12.9493 40.5468 13.312C40.8775 13.664 41.3681 13.84 42.0188 13.84Z" fill="#FA7436"/>
</svg>
