<svg width="52" height="28" viewBox="0 0 52 28" fill="none" xmlns="http://www.w3.org/2000/svg">
<rect width="52" height="28" rx="4" fill="#FFE7DB"/>
<path d="M15.1345 16.784C15.1345 17.3387 14.9905 17.8613 14.7025 18.352C14.4252 18.832 14.0092 19.232 13.4545 19.552C12.9105 19.8613 12.2652 20.0427 11.5185 20.096V21.392H10.4945V20.08C9.42783 19.984 8.56917 19.664 7.9185 19.12C7.26783 18.5653 6.93183 17.8187 6.9105 16.88H9.3105C9.3745 17.648 9.76917 18.112 10.4945 18.272V15.216C9.7265 15.024 9.10783 14.832 8.6385 14.64C8.16917 14.448 7.76383 14.1387 7.4225 13.712C7.08117 13.2853 6.9105 12.704 6.9105 11.968C6.9105 11.04 7.24117 10.2827 7.9025 9.696C8.5745 9.10933 9.4385 8.77333 10.4945 8.688V7.392H11.5185V8.688C12.5425 8.77333 13.3585 9.08267 13.9665 9.616C14.5852 10.1493 14.9318 10.8853 15.0065 11.824H12.5905C12.5585 11.5147 12.4465 11.248 12.2545 11.024C12.0732 10.7893 11.8278 10.624 11.5185 10.528V13.552C12.3185 13.7547 12.9478 13.952 13.4065 14.144C13.8758 14.3253 14.2812 14.6293 14.6225 15.056C14.9638 15.472 15.1345 16.048 15.1345 16.784ZM9.2465 11.856C9.2465 12.208 9.35317 12.496 9.5665 12.72C9.77983 12.9333 10.0892 13.1093 10.4945 13.248V10.48C10.1105 10.5333 9.8065 10.6773 9.5825 10.912C9.3585 11.1467 9.2465 11.4613 9.2465 11.856ZM11.5185 18.304C11.9238 18.2293 12.2385 18.064 12.4625 17.808C12.6972 17.552 12.8145 17.2427 12.8145 16.88C12.8145 16.528 12.7025 16.2453 12.4785 16.032C12.2545 15.8187 11.9345 15.6427 11.5185 15.504V18.304ZM24.8033 10.032L20.5473 20H18.2753L22.5633 10.288H17.0913V8.368H24.8033V10.032ZM33.9849 10.272H28.8009V13.008C29.0249 12.7307 29.3449 12.5067 29.7609 12.336C30.1769 12.1547 30.6195 12.064 31.0889 12.064C31.9422 12.064 32.6409 12.2507 33.1849 12.624C33.7289 12.9973 34.1235 13.4773 34.3689 14.064C34.6142 14.64 34.7369 15.2587 34.7369 15.92C34.7369 17.1467 34.3849 18.1333 33.6809 18.88C32.9875 19.6267 31.9955 20 30.7049 20C29.4889 20 28.5182 19.696 27.7929 19.088C27.0675 18.48 26.6569 17.6853 26.5609 16.704H28.7369C28.8329 17.1307 29.0462 17.472 29.3769 17.728C29.7182 17.984 30.1502 18.112 30.6729 18.112C31.3022 18.112 31.7769 17.9147 32.0969 17.52C32.4169 17.1253 32.5769 16.6027 32.5769 15.952C32.5769 15.2907 32.4115 14.7893 32.0809 14.448C31.7609 14.096 31.2862 13.92 30.6569 13.92C30.2089 13.92 29.8355 14.032 29.5369 14.256C29.2382 14.48 29.0249 14.7787 28.8969 15.152H26.7529V8.304H33.9849V10.272ZM36.4418 14.016C36.4418 12.1707 36.7724 10.7253 37.4338 9.68C38.1058 8.63467 39.2151 8.112 40.7618 8.112C42.3084 8.112 43.4124 8.63467 44.0738 9.68C44.7458 10.7253 45.0818 12.1707 45.0818 14.016C45.0818 15.872 44.7458 17.328 44.0738 18.384C43.4124 19.44 42.3084 19.968 40.7618 19.968C39.2151 19.968 38.1058 19.44 37.4338 18.384C36.7724 17.328 36.4418 15.872 36.4418 14.016ZM42.8738 14.016C42.8738 13.2267 42.8204 12.5653 42.7138 12.032C42.6178 11.488 42.4151 11.0453 42.1058 10.704C41.8071 10.3627 41.3591 10.192 40.7618 10.192C40.1644 10.192 39.7111 10.3627 39.4018 10.704C39.1031 11.0453 38.9004 11.488 38.7938 12.032C38.6978 12.5653 38.6498 13.2267 38.6498 14.016C38.6498 14.8267 38.6978 15.5093 38.7938 16.064C38.8898 16.608 39.0924 17.0507 39.4018 17.392C39.7111 17.7227 40.1644 17.888 40.7618 17.888C41.3591 17.888 41.8124 17.7227 42.1218 17.392C42.4311 17.0507 42.6338 16.608 42.7298 16.064C42.8258 15.5093 42.8738 14.8267 42.8738 14.016Z" fill="#FA7436"/>
</svg>
