<svg width="52" height="28" viewBox="0 0 52 28" fill="none" xmlns="http://www.w3.org/2000/svg">
<rect width="52" height="28" rx="8" fill="#FFE7DB"/>
<path d="M14.3767 16.784C14.3767 17.3387 14.2327 17.8613 13.9447 18.352C13.6674 18.832 13.2514 19.232 12.6967 19.552C12.1527 19.8613 11.5074 20.0427 10.7607 20.096V21.392H9.73669V20.08C8.67002 19.984 7.81135 19.664 7.16069 19.12C6.51002 18.5653 6.17402 17.8187 6.15269 16.88H8.55269C8.61669 17.648 9.01135 18.112 9.73669 18.272V15.216C8.96869 15.024 8.35002 14.832 7.88069 14.64C7.41135 14.448 7.00602 14.1387 6.66469 13.712C6.32335 13.2853 6.15269 12.704 6.15269 11.968C6.15269 11.04 6.48335 10.2827 7.14469 9.696C7.81669 9.10933 8.68069 8.77333 9.73669 8.688V7.392H10.7607V8.688C11.7847 8.77333 12.6007 9.08267 13.2087 9.616C13.8274 10.1493 14.174 10.8853 14.2487 11.824H11.8327C11.8007 11.5147 11.6887 11.248 11.4967 11.024C11.3154 10.7893 11.07 10.624 10.7607 10.528V13.552C11.5607 13.7547 12.19 13.952 12.6487 14.144C13.118 14.3253 13.5234 14.6293 13.8647 15.056C14.206 15.472 14.3767 16.048 14.3767 16.784ZM8.48869 11.856C8.48869 12.208 8.59535 12.496 8.80869 12.72C9.02202 12.9333 9.33135 13.1093 9.73669 13.248V10.48C9.35269 10.5333 9.04869 10.6773 8.82469 10.912C8.60069 11.1467 8.48869 11.4613 8.48869 11.856ZM10.7607 18.304C11.166 18.2293 11.4807 18.064 11.7047 17.808C11.9394 17.552 12.0567 17.2427 12.0567 16.88C12.0567 16.528 11.9447 16.2453 11.7207 16.032C11.4967 15.8187 11.1767 15.6427 10.7607 15.504V18.304ZM18.5734 13.824C17.5068 13.2693 16.9734 12.4107 16.9734 11.248C16.9734 10.672 17.1174 10.1493 17.4054 9.68C17.7041 9.2 18.1468 8.82133 18.7334 8.544C19.3308 8.256 20.0561 8.112 20.9094 8.112C21.7628 8.112 22.4828 8.256 23.0694 8.544C23.6668 8.82133 24.1094 9.2 24.3974 9.68C24.6961 10.1493 24.8454 10.672 24.8454 11.248C24.8454 11.8347 24.7014 12.352 24.4134 12.8C24.1254 13.2373 23.7414 13.5787 23.2614 13.824C23.8481 14.08 24.3068 14.4533 24.6374 14.944C24.9681 15.4347 25.1334 16.016 25.1334 16.688C25.1334 17.4133 24.9468 18.048 24.5734 18.592C24.2108 19.1253 23.7094 19.536 23.0694 19.824C22.4294 20.112 21.7094 20.256 20.9094 20.256C20.1094 20.256 19.3894 20.112 18.7494 19.824C18.1201 19.536 17.6188 19.1253 17.2454 18.592C16.8828 18.048 16.7014 17.4133 16.7014 16.688C16.7014 16.016 16.8668 15.4347 17.1974 14.944C17.5281 14.4427 17.9868 14.0693 18.5734 13.824ZM22.6694 11.568C22.6694 11.0453 22.5094 10.64 22.1894 10.352C21.8801 10.064 21.4534 9.92 20.9094 9.92C20.3761 9.92 19.9494 10.064 19.6294 10.352C19.3201 10.64 19.1654 11.0507 19.1654 11.584C19.1654 12.064 19.3254 12.448 19.6454 12.736C19.9761 13.024 20.3974 13.168 20.9094 13.168C21.4214 13.168 21.8428 13.024 22.1734 12.736C22.5041 12.4373 22.6694 12.048 22.6694 11.568ZM20.9094 14.8C20.3014 14.8 19.8054 14.9547 19.4214 15.264C19.0481 15.5733 18.8614 16.016 18.8614 16.592C18.8614 17.1253 19.0428 17.5627 19.4054 17.904C19.7788 18.2347 20.2801 18.4 20.9094 18.4C21.5388 18.4 22.0348 18.2293 22.3974 17.888C22.7601 17.5467 22.9414 17.1147 22.9414 16.592C22.9414 16.0267 22.7548 15.5893 22.3814 15.28C22.0081 14.96 21.5174 14.8 20.9094 14.8ZM34.7427 10.272H29.5587V13.008C29.7827 12.7307 30.1027 12.5067 30.5187 12.336C30.9347 12.1547 31.3774 12.064 31.8467 12.064C32.7 12.064 33.3987 12.2507 33.9427 12.624C34.4867 12.9973 34.8814 13.4773 35.1267 14.064C35.372 14.64 35.4947 15.2587 35.4947 15.92C35.4947 17.1467 35.1427 18.1333 34.4387 18.88C33.7454 19.6267 32.7534 20 31.4627 20C30.2467 20 29.276 19.696 28.5507 19.088C27.8254 18.48 27.4147 17.6853 27.3187 16.704H29.4947C29.5907 17.1307 29.804 17.472 30.1347 17.728C30.476 17.984 30.908 18.112 31.4307 18.112C32.06 18.112 32.5347 17.9147 32.8547 17.52C33.1747 17.1253 33.3347 16.6027 33.3347 15.952C33.3347 15.2907 33.1694 14.7893 32.8387 14.448C32.5187 14.096 32.044 13.92 31.4147 13.92C30.9667 13.92 30.5934 14.032 30.2947 14.256C29.996 14.48 29.7827 14.7787 29.6547 15.152H27.5107V8.304H34.7427V10.272ZM37.1996 14.016C37.1996 12.1707 37.5302 10.7253 38.1916 9.68C38.8636 8.63467 39.9729 8.112 41.5196 8.112C43.0662 8.112 44.1702 8.63467 44.8316 9.68C45.5036 10.7253 45.8396 12.1707 45.8396 14.016C45.8396 15.872 45.5036 17.328 44.8316 18.384C44.1702 19.44 43.0662 19.968 41.5196 19.968C39.9729 19.968 38.8636 19.44 38.1916 18.384C37.5302 17.328 37.1996 15.872 37.1996 14.016ZM43.6316 14.016C43.6316 13.2267 43.5782 12.5653 43.4716 12.032C43.3756 11.488 43.1729 11.0453 42.8636 10.704C42.5649 10.3627 42.1169 10.192 41.5196 10.192C40.9222 10.192 40.4689 10.3627 40.1596 10.704C39.8609 11.0453 39.6582 11.488 39.5516 12.032C39.4556 12.5653 39.4076 13.2267 39.4076 14.016C39.4076 14.8267 39.4556 15.5093 39.5516 16.064C39.6476 16.608 39.8502 17.0507 40.1596 17.392C40.4689 17.7227 40.9222 17.888 41.5196 17.888C42.1169 17.888 42.5702 17.7227 42.8796 17.392C43.1889 17.0507 43.3916 16.608 43.4876 16.064C43.5836 15.5093 43.6316 14.8267 43.6316 14.016Z" fill="#FA7436"/>
</svg>
